<svg id="Layer_1" data-name="Layer 1" xmlns="http://www.w3.org/2000/svg" width="24" height="24" viewBox="0 0 24 24">
  <g>
    <path d="M20.48,13.94A8.24,8.24,0,0,0,20.7,12a8.93,8.93,0,0,0-.23-2l2-1.71L20.36,4.62l-2.49,1a8.69,8.69,0,0,0-3.31-1.9l-.44-2.63H9.88L9.44,3.68A8.63,8.63,0,0,0,6.07,5.63l-2.5-.94L1.45,8.36l2.07,1.7A8.24,8.24,0,0,0,3.3,12a8.93,8.93,0,0,0,.23,2l-2,1.71,2.16,3.65,2.49-1a8.69,8.69,0,0,0,3.31,1.9L9.88,23h4.24l.44-2.63a8.76,8.76,0,0,0,3.37-1.95l2.5.94,2.12-3.67Z" fill="none" stroke="#919191" stroke-linecap="round" stroke-linejoin="round" stroke-width="2"/>
    <circle cx="12" cy="12" r="4.2" fill="none" stroke="#919191" stroke-linecap="round" stroke-linejoin="round" stroke-width="2"/>
  </g>
</svg>
