<svg id="Layer_1" data-name="Layer 1" xmlns="http://www.w3.org/2000/svg" width="24" height="24" viewBox="0 0 24 24">
  <g>
    <path d="M19.75,18a1.94,1.94,0,0,1-1.94,1.93H6.19a1.93,1.93,0,0,1-.9-3.65,1.83,1.83,0,0,0,.9-1.63v-6a5.81,5.81,0,1,1,11.62,0v6a1.83,1.83,0,0,0,.9,1.63A1.94,1.94,0,0,1,19.75,18Z" fill="none" stroke="#919191" stroke-linecap="round" stroke-linejoin="round" stroke-width="2"/>
    <path d="M12,1.05V2.38" fill="none" stroke="#919191" stroke-linecap="round" stroke-linejoin="round" stroke-width="2"/>
    <path d="M14.43,20.32v.21a2.43,2.43,0,0,1-4.86,0v-.21" fill="none" stroke="#919191" stroke-linecap="round" stroke-linejoin="round" stroke-width="2"/>
  </g>
</svg>
